<svg id="Layer_2" data-name="Layer 2" xmlns="http://www.w3.org/2000/svg" viewBox="0 0 500 104.33"><defs><style>.cls-1{fill:#bf1f2e;}</style></defs><path class="cls-1" d="M238.11,96.21v-86l9.27-2.45c6.52-2.11,8.54.67,8.34,7-.3,9.7-.08,19.42-.08,28.94,4.95-2.25,9.38-5.4,14.21-6.25,12.15-2.12,22.6,4,25.29,16.21,1.93,8.78,2.45,18.59.66,27.33-3.87,18.82-24.11,24.46-38.67,11.73a14.14,14.14,0,0,0-2.69-1.45l-2.22,6.49-12.71,0Zm41.17-29.14c-.11-5.36.3-13-8.88-15.29-7.68-1.93-13,2.09-14.51,10.47-2.26,12.4,1.66,21.87,9.46,22.88C274.65,86.34,279.28,81,279.28,67.07Z"/><path class="cls-1" d="M101.14,38.89h12.73V97.77H101.15l-1.66-1.63,0-3.16,1-2.1-1.1.66c-3,2-5.76,4.42-8.95,6C77.2,103.93,61,95.72,58.36,80.44c-1.34-7.65-1-15.82-.06-23.58,1.11-8.93,6.19-15.73,15.3-18.45,8.72-2.6,16.75-1.83,23.13,5.64.56.66,1.82.73,2.75,1.08l1.11.61-1.07-2.09,0-3.16ZM98,68.7c0-11.79-2.6-16.36-9.77-17.09q-11.5-1.17-12.8,11.61c-1.4,14,1.74,21,9.71,21.91C93.92,86.09,98,80.93,98,68.7Z"/><path class="cls-1" d="M429,68.86c0,14.76-5.75,24.43-17,28.62-12.74,4.77-28.59,1.56-36.09-7.3s-8.82-29.17-2.55-40c5.95-10.3,19.65-15.38,33.53-12.44C421.72,40.86,429,51.1,429,68.86Zm-17.84-2.48c-.17-5.16-.25-12.39-8.88-14.6-7.59-1.94-13.33,2.35-14.65,10.4-2.18,13.32,1.79,22.23,10.22,22.95C407,85.92,411.17,80.61,411.12,66.38Z"/><path class="cls-1" d="M454,64.27c3.15-4,6.62-7.88,9.4-12.17C472,38.71,471.93,38.64,489.51,41c-4.23,6.71-7.8,13.46-12.41,19.39-4.33,5.57-4,10,.17,15.32,3.74,4.75,6.67,10.14,10,15.21s1.48,6.74-4.08,7.31c-7.33.75-12.4-1.12-15.91-8.17-3.28-6.58-7.8-12.53-11.79-18.75a.63.63,0,0,0-.61,0,13.12,13.12,0,0,0-1,1.13q-.65,12.69-1.31,25.38H438.29c0-26.35.11-52.71-.1-79.07,0-4.52.49-8.17,4.78-10.4l9.65-1.08c0,15.48-.1,31,0,46.43C452.69,57.19,453.52,60.73,454,64.27Z"/><path class="cls-1" d="M191.9,74.69c1.82,9.22,4.6,12,13.73,11.72,6.27-.16,12.51-1.43,19.7-2.33.92,2.92,2,6.55,3.48,11.12-15,5.31-29.81,7.6-43.68-.56s-11.76-22.72-10.51-35.79c1-10.66,7.75-17.49,18.41-20.34,20.26-5.43,35.05,3.63,36.67,22.74l-2.49,11c-9.31,0-18.5-.17-27.67.11C197,72.48,194.44,73.89,191.9,74.69Zm21.76-12.18c-.17-9.62-3.46-13.22-11.22-12.83-7.09.36-10.14,4.32-9.69,12.83Z"/><path class="cls-1" d="M37.53,97.77H24.82l-1.77-1.66q0-19.83,0-39.67c0-.57,0-1.13,0-1.69-.89-.49-1.73-1.31-2.67-1.42-10.23-1.26-10.24-1.23-9.75-12.18l11.27-3.39C23.42,10,24.24,6.17,55.37,8.6V20.53c-15.71,1.69-17.09,3.7-13.46,19.56H54.05c1.88,12,1.16,13.11-13.43,13.47,0,12,.09,24.09-.07,36.15,0,2.66-.95,5.3-1.46,7.94Z"/><path class="cls-1" d="M443,8.3c-4.29,2.23-4.82,5.88-4.78,10.4.21,26.36.1,52.72.1,79.07-.68-2-1.94-4-2-6-.13-25.68.07-51.37-.21-77.06C436.07,9.23,437.94,7.48,443,8.3Z"/><path class="cls-1" d="M113.87,97.77V38.9c.72,1.43,2,2.85,2.06,4.29q.21,25.14,0,50.29C115.92,94.92,114.58,96.34,113.87,97.77Z"/><path class="cls-1" d="M454,64.27c-.46-3.54-1.29-7.08-1.32-10.62-.14-15.47-.05-30.95,0-46.43.52,1.3,1.49,2.6,1.5,3.9C454.15,28.83,454.05,46.55,454,64.27Z"/><path class="cls-1" d="M191.9,74.69c2.54-.8,5.07-2.21,7.64-2.29,9.17-.28,18.36-.11,27.67-.11l2.49-11V74.69Z"/><path class="cls-1" d="M452.6,97.77q.66-12.69,1.31-25.38Q453.27,85.08,452.6,97.77Z"/><path class="cls-1" d="M247.38,7.77l-9.27,2.45Z"/><path class="cls-1" d="M252.22,97.77l2.22-6.49Z"/><path class="cls-1" d="M99.52,43.65l1.07,2.09-1.11-.61A1.64,1.64,0,0,1,99.52,43.65Z"/><path class="cls-1" d="M99.46,91.55l1.1-.66-1,2.1A1.62,1.62,0,0,1,99.46,91.55Z"/><path class="cls-1" d="M101.14,38.89l-1.65,1.6Z"/><path class="cls-1" d="M23.07,54.75c0,.56,0,1.12,0,1.69C23.06,55.87,23.07,55.31,23.07,54.75Z"/><path class="cls-1" d="M23.05,96.11l1.77,1.66Z"/><path class="cls-1" d="M37.53,97.77l1.56-.12Z"/><path class="cls-1" d="M99.49,96.15l1.66,1.63Z"/><path class="cls-1" d="M238.11,96.21l1.4,1.58Z"/><path class="cls-1" d="M333.42,37.16c-19.13,0-30,11.24-30,30.92.06,20,10.75,31.31,29.62,31.4,19.29.09,30.3-11,30.38-30.57C363.54,48.57,352.73,37.14,333.42,37.16Zm10.93,39.23c-.66,6.14-5,8.81-11.12,8.82-6.35,0-9.77-3.3-10.93-9.18a40.31,40.31,0,0,1-.47-6.2c0-13.95,3.88-19.55,12.55-18,3.62.65,8.43,4.22,9.45,7.48C345.47,64.57,345,70.73,344.35,76.39Z"/><path class="cls-1" d="M140.52,64.8c3.15-4,6.63-7.88,9.4-12.17,8.66-13.39,8.55-13.46,26.13-11.11-4.22,6.71-7.79,13.45-12.41,19.38-4.33,5.58-4,10,.18,15.33,3.73,4.75,6.66,10.14,10,15.21s1.48,6.73-4.08,7.3c-7.33.75-12.41-1.11-15.92-8.16C150.55,84,146,78,142,71.82a.65.65,0,0,0-.61,0,9.54,9.54,0,0,0-1,1.13L139.14,98.3H124.83c0-26.36.11-52.72-.1-79.07,0-4.52.5-8.17,4.79-10.41l9.65-1.07c0,15.48-.11,31,0,46.43C139.24,57.72,140.06,61.26,140.52,64.8Z"/><path class="cls-1" d="M129.52,8.82c-4.29,2.24-4.82,5.89-4.79,10.41.21,26.35.1,52.71.1,79.07-.68-2-1.93-4-1.94-6-.14-25.69.06-51.37-.22-77.06C122.62,9.76,124.48,8,129.52,8.82Z"/><path class="cls-1" d="M140.52,64.8c-.46-3.54-1.28-7.08-1.32-10.62-.14-15.48,0-30.95,0-46.43.52,1.3,1.49,2.6,1.49,3.89C140.69,29.36,140.59,47.08,140.52,64.8Z"/></svg>